<svg xmlns="http://www.w3.org/2000/svg" version="1.1" xmlns:xlink="http://www.w3.org/1999/xlink" viewBox="0 0 200 200"><rect width="200" height="200" fill="url('#gradient')"></rect><defs><linearGradient id="gradient" gradientTransform="rotate(45 0.5 0.5)"><stop offset="0%" stop-color="#ffffff"></stop><stop offset="100%" stop-color="#000000"></stop></linearGradient></defs><g><g fill="#ff0000" transform="matrix(3.4862871193493477,0,0,3.4862871193493477,10.104957232436718,125.8008674847419)" stroke="#000000" stroke-width="0.2"><path d="M9.98 0L9.15-2.66L4.45-2.66L3.63 0L-0.03 0L5.19-14.22L8.41-14.22L13.66 0L9.98 0ZM6.80-10.23L5.27-5.30L8.33-5.30L6.80-10.23ZM18.35-14.22L18.35 0L14.93 0L14.93-14.22L18.35-14.22ZM26.11-2.97L26.11-2.97Q26.11-3.39 25.67-3.64Q25.23-3.90 24.00-4.17Q22.77-4.44 21.97-4.89Q21.17-5.33 20.75-5.97Q20.33-6.60 20.33-7.42L20.33-7.42Q20.33-8.88 21.53-9.82Q22.73-10.76 24.68-10.76L24.68-10.76Q26.77-10.76 28.04-9.81Q29.31-8.87 29.31-7.32L29.31-7.32L26.01-7.32Q26.01-8.59 24.67-8.59L24.67-8.59Q24.15-8.59 23.80-8.31Q23.45-8.02 23.45-7.59L23.45-7.59Q23.45-7.15 23.88-6.88Q24.31-6.60 25.25-6.43Q26.19-6.25 26.90-6.01L26.90-6.01Q29.29-5.19 29.29-3.07L29.29-3.07Q29.29-1.62 28.00-0.71Q26.72 0.20 24.68 0.20L24.68 0.20Q23.32 0.20 22.26-0.29Q21.19-0.78 20.60-1.62Q20-2.46 20-3.39L20-3.39L23.08-3.39Q23.10-2.66 23.56-2.32Q24.03-1.98 24.77-1.98L24.77-1.98Q25.44-1.98 25.78-2.26Q26.11-2.53 26.11-2.97ZM34.30-10.57L34.30 0L31.00 0L31.00-10.57L34.30-10.57ZM30.80-13.29L30.80-13.29Q30.80-13.99 31.31-14.44Q31.82-14.89 32.63-14.89Q33.44-14.89 33.95-14.44Q34.45-13.99 34.45-13.29Q34.45-12.59 33.95-12.14Q33.44-11.69 32.63-11.69Q31.82-11.69 31.31-12.14Q30.80-12.59 30.80-13.29ZM39.79-15L39.79 0L36.49 0L36.49-15L39.79-15ZM41.42-4.82L41.41-5.38Q41.41-6.96 42.02-8.20Q42.64-9.43 43.79-10.10Q44.94-10.76 46.49-10.76L46.49-10.76Q48.87-10.76 50.23-9.29Q51.60-7.82 51.60-5.29L51.60-5.29L51.60-5.18Q51.60-2.71 50.23-1.25Q48.86 0.20 46.51 0.20L46.51 0.20Q44.26 0.20 42.89-1.16Q41.52-2.51 41.42-4.82L41.42-4.82ZM44.71-5.77L44.70-5.18Q44.70-3.71 45.16-3.03Q45.62-2.34 46.51-2.34L46.51-2.34Q48.27-2.34 48.31-5.05L48.31-5.05L48.31-5.38Q48.31-8.22 46.49-8.22L46.49-8.22Q44.84-8.22 44.71-5.77L44.71-5.77Z"></path></g></g></svg>