<svg xmlns="http://www.w3.org/2000/svg" version="1.1" xmlns:xlink="http://www.w3.org/1999/xlink" viewBox="0 0 200 200"><rect width="200" height="200" fill="url('#gradient')"></rect><defs><linearGradient id="gradient" gradientTransform="rotate(288 0.5 0.5)"><stop offset="0%" stop-color="#ffffff"></stop><stop offset="100%" stop-color="#000000"></stop></linearGradient></defs><g><g fill="#ff0000" transform="matrix(3.3901048372264118,0,0,3.3901048372264118,9.299815190212243,124.10790238460241)" stroke="#000000" stroke-width="0.45"><path d="M10.11-14.22L12.09-5.30L13.72-14.22L17.12-14.22L14.10 0L10.55 0L8.64-8.11L6.78 0L3.23 0L0.21-14.22L3.61-14.22L5.24-5.30L7.20-14.22L10.11-14.22ZM21.26-6.04L21.26-8.49L22.81-8.49Q24.66-8.49 24.66-10.29L24.66-10.29Q24.66-11.00 24.22-11.44Q23.78-11.88 22.98-11.88L22.98-11.88Q22.32-11.88 21.84-11.50Q21.36-11.12 21.36-10.56L21.36-10.56L18.07-10.56Q18.07-11.68 18.69-12.56Q19.32-13.44 20.42-13.93Q21.53-14.42 22.86-14.42L22.86-14.42Q25.23-14.42 26.59-13.34Q27.95-12.26 27.95-10.36L27.95-10.36Q27.95-9.44 27.39-8.63Q26.83-7.81 25.75-7.30L25.75-7.30Q26.88-6.89 27.53-6.06Q28.17-5.22 28.17-3.99L28.17-3.99Q28.17-2.09 26.71-0.95Q25.24 0.20 22.86 0.20L22.86 0.20Q21.46 0.20 20.27-0.34Q19.07-0.87 18.46-1.81Q17.84-2.75 17.84-3.96L17.84-3.96L21.15-3.96Q21.15-3.30 21.68-2.82Q22.21-2.34 22.98-2.34L22.98-2.34Q23.85-2.34 24.37-2.83Q24.88-3.31 24.88-4.06L24.88-4.06Q24.88-5.14 24.35-5.59Q23.81-6.04 22.86-6.04L22.86-6.04L21.26-6.04ZM34.72 0L30.04 0L30.04-14.22L34.62-14.22Q36.50-14.22 38.01-13.36Q39.51-12.51 40.36-10.95Q41.20-9.39 41.21-7.46L41.21-7.46L41.21-6.81Q41.21-4.85 40.39-3.31Q39.56-1.76 38.06-0.88Q36.56-0.01 34.72 0L34.72 0ZM34.62-11.57L33.47-11.57L33.47-2.64L34.66-2.64Q36.13-2.64 36.92-3.69Q37.71-4.74 37.71-6.81L37.71-6.81L37.71-7.42Q37.71-9.48 36.92-10.53Q36.13-11.57 34.62-11.57L34.62-11.57ZM53.30-14.22L53.30-11.57L49.03-11.57L49.03 0L45.61 0L45.61-11.57L41.42-11.57L41.42-14.22L53.30-14.22Z"></path></g></g></svg>