<svg xmlns="http://www.w3.org/2000/svg" version="1.1" xmlns:xlink="http://www.w3.org/1999/xlink" viewBox="0 0 200 200"><rect width="200" height="200" fill="url('#gradient')"></rect><defs><linearGradient id="gradient" gradientTransform="rotate(45 0.5 0.5)"><stop offset="0%" stop-color="#ffffff"></stop><stop offset="100%" stop-color="#000000"></stop></linearGradient></defs><g><g fill="#ff0000" transform="matrix(11.146491803278689,0,0,11.146491803278689,7.705796949589839,182.98692227967058)" stroke="#000000" stroke-width="0.2"><path d="M10.03-8.30L10.03-5.66L4.50-5.66L4.50 0L1.07 0L1.07-14.22L10.59-14.22L10.59-11.57L4.50-11.57L4.50-8.30L10.03-8.30ZM15.33-10.57L15.33 0L12.03 0L12.03-10.57L15.33-10.57ZM11.84-13.29L11.84-13.29Q11.84-13.99 12.34-14.44Q12.85-14.89 13.66-14.89Q14.47-14.89 14.98-14.44Q15.49-13.99 15.49-13.29Q15.49-12.59 14.98-12.14Q14.47-11.69 13.66-11.69Q12.85-11.69 12.34-12.14Q11.84-12.59 11.84-13.29Z"></path></g></g></svg>